<svg xmlns="http://www.w3.org/2000/svg" width="830" height="210"><g aria-label="q" style="font-style:normal;font-weight:400;font-size:72px;line-height:1;font-variant-ligatures:normal;text-align:center;text-anchor:middle"><path fill="#fcfcfc" d="M334.481 27.627c-38.878 0-70.48 31.603-70.48 70.668 0 38.88 31.603 70.288 70.48 70.288 38.876 0 70.669-31.407 70.669-70.287 0-39.066-31.793-70.669-70.669-70.669zm0 115.484c-24.899 0-45.008-19.916-45.008-44.815 0-24.895 20.109-45.197 45.007-45.197 24.896 0 45.198 20.302 45.198 45.197 0 24.899-20.302 44.815-45.198 44.815z" class="c1"/><path fill="#b8db9f" d="M380.444 169.731c0-7.085 5.745-12.638 12.639-12.638 7.088 0 12.833 5.553 12.833 12.638 0 6.896-5.745 12.642-12.833 12.642-6.894 0-12.64-5.745-12.64-12.642z" class="c3"/></g><text xml:space="preserve" x="437.567" y="69.2" style="font-style:normal;font-variant:normal;font-weight:400;font-stretch:normal;font-size:16px;font-family:&quot;Ubuntu Nerd Font&quot;;-inkscape-font-specification:&quot;Ubuntu Nerd Font, Normal&quot;;font-variant-ligatures:normal;font-variant-caps:normal;font-variant-numeric:normal;font-variant-east-asian:normal;text-align:start;writing-mode:lr-tb;direction:ltr;text-anchor:start;fill:#fff;fill-opacity:1"><tspan x="437.567" y="69.2">fast compilation</tspan><tspan x="437.567" y="109.2">high performance</tspan><tspan x="437.567" y="149.2">tiny executables</tspan></text></svg>