<svg xmlns="http://www.w3.org/2000/svg" width="830" height="210">
	<g aria-label="q" font-size="72" font-weight="400" style="line-height:1;font-variant-ligatures:normal;text-align:center" text-anchor="middle">
		<path fill="#fcfcfc" d="M334.5 27.6a70.6 70.6 0 1 0 .2 141.2 70.6 70.6 0 0 0-.2-141.2zm0 115.5c-25 0-45-20-45-44.8a45.1 45.1 0 1 1 45 44.8z" class="c1"/>
		<path fill="#b8db9f" d="M380.4 169.7c0-7 5.8-12.6 12.7-12.6 7 0 12.8 5.5 12.8 12.6 0 7-5.7 12.7-12.8 12.7-7 0-12.7-5.8-12.7-12.7z" class="c3"/>
	</g>
	<text xml:space="preserve" x="437.6" y="69.2" fill="#fff" font-family="system-ui" font-size="16" font-weight="400" style="font-variant-ligatures:normal;font-variant-caps:normal;font-variant-numeric:normal;font-variant-east-asian:normal;text-align:start"><tspan x="437.6" y="69.2">fast compilation</tspan><tspan x="437.6" y="109.2">high performance</tspan><tspan x="437.6" y="149.2">tiny executables</tspan></text>
</svg>